<mxfile host="app.diagrams.net" modified="2022-04-01T15:32:59.832Z" agent="5.0 (Windows NT 10.0; Win64; x64) AppleWebKit/537.36 (KHTML, like Gecko) Chrome/98.0.4758.116 Safari/537.36" etag="OhUtgvjEqVtt_vdASzRG" version="17.2.6" type="github" pages="2">
  <diagram name="Page-1" id="0783ab3e-0a74-02c8-0abd-f7b4e66b4bec">
    <mxGraphModel dx="1177" dy="643" grid="1" gridSize="10" guides="1" tooltips="1" connect="1" arrows="1" fold="1" page="1" pageScale="1" pageWidth="850" pageHeight="1100" background="none" math="0" shadow="0">
      <root>
        <mxCell id="0" />
        <mxCell id="1" parent="0" />
        <mxCell id="1c1d494c118603dd-1" value="Pool" style="swimlane;html=1;childLayout=stackLayout;startSize=20;rounded=0;shadow=0;comic=0;labelBackgroundColor=none;strokeWidth=1;fontFamily=Verdana;fontSize=12;align=center;" parent="1" vertex="1">
          <mxGeometry x="40" y="20" width="750" height="990" as="geometry" />
        </mxCell>
        <mxCell id="1c1d494c118603dd-2" value="á»¦e" style="swimlane;html=1;startSize=20;" parent="1c1d494c118603dd-1" vertex="1">
          <mxGeometry y="20" width="250" height="970" as="geometry" />
        </mxCell>
        <mxCell id="1c1d494c118603dd-34" style="edgeStyle=none;rounded=0;html=1;labelBackgroundColor=none;startArrow=none;startFill=0;startSize=5;endArrow=classicThin;endFill=1;endSize=5;jettySize=auto;orthogonalLoop=1;strokeWidth=1;fontFamily=Verdana;fontSize=12" parent="1c1d494c118603dd-2" source="1c1d494c118603dd-6" target="1c1d494c118603dd-10" edge="1">
          <mxGeometry relative="1" as="geometry" />
        </mxCell>
        <mxCell id="1c1d494c118603dd-6" value="Action" style="rounded=1;whiteSpace=wrap;html=1;shadow=0;comic=0;labelBackgroundColor=none;strokeWidth=1;fontFamily=Verdana;fontSize=12;align=center;arcSize=50;" parent="1c1d494c118603dd-2" vertex="1">
          <mxGeometry x="90" y="220" width="100" height="30" as="geometry" />
        </mxCell>
        <mxCell id="1c1d494c118603dd-7" value="Action" style="rounded=1;whiteSpace=wrap;html=1;shadow=0;comic=0;labelBackgroundColor=none;strokeWidth=1;fontFamily=Verdana;fontSize=12;align=center;arcSize=50;" parent="1c1d494c118603dd-2" vertex="1">
          <mxGeometry x="80" y="335" width="100" height="30" as="geometry" />
        </mxCell>
        <mxCell id="1c1d494c118603dd-35" style="edgeStyle=none;rounded=0;html=1;labelBackgroundColor=none;startArrow=none;startFill=0;startSize=5;endArrow=classicThin;endFill=1;endSize=5;jettySize=auto;orthogonalLoop=1;strokeWidth=1;fontFamily=Verdana;fontSize=12" parent="1c1d494c118603dd-2" source="1c1d494c118603dd-10" target="1c1d494c118603dd-7" edge="1">
          <mxGeometry relative="1" as="geometry" />
        </mxCell>
        <mxCell id="1c1d494c118603dd-10" value="Object" style="rounded=0;whiteSpace=wrap;html=1;shadow=0;comic=0;labelBackgroundColor=none;strokeWidth=1;fontFamily=Verdana;fontSize=12;align=center;arcSize=50;" parent="1c1d494c118603dd-2" vertex="1">
          <mxGeometry x="140" y="280" width="70" height="30" as="geometry" />
        </mxCell>
        <mxCell id="1c1d494c118603dd-46" style="edgeStyle=none;rounded=0;html=1;labelBackgroundColor=none;startArrow=none;startFill=0;startSize=5;endArrow=oval;endFill=0;endSize=5;jettySize=auto;orthogonalLoop=1;strokeWidth=1;fontFamily=Verdana;fontSize=12;dashed=1;" parent="1c1d494c118603dd-2" source="1c1d494c118603dd-21" target="1c1d494c118603dd-6" edge="1">
          <mxGeometry relative="1" as="geometry" />
        </mxCell>
        <mxCell id="1c1d494c118603dd-47" style="edgeStyle=none;rounded=0;html=1;dashed=1;labelBackgroundColor=none;startArrow=none;startFill=0;startSize=5;endArrow=oval;endFill=0;endSize=5;jettySize=auto;orthogonalLoop=1;strokeWidth=1;fontFamily=Verdana;fontSize=12" parent="1c1d494c118603dd-2" source="1c1d494c118603dd-21" target="1c1d494c118603dd-10" edge="1">
          <mxGeometry relative="1" as="geometry" />
        </mxCell>
        <mxCell id="1c1d494c118603dd-21" value="Note" style="shape=note;whiteSpace=wrap;html=1;rounded=0;shadow=0;comic=0;labelBackgroundColor=none;strokeWidth=1;fontFamily=Verdana;fontSize=12;align=center;size=20;" parent="1c1d494c118603dd-2" vertex="1">
          <mxGeometry x="20" y="274" width="85" height="42" as="geometry" />
        </mxCell>
        <mxCell id="1c1d494c118603dd-3" value="Lane 2" style="swimlane;html=1;startSize=20;" parent="1c1d494c118603dd-1" vertex="1">
          <mxGeometry x="250" y="20" width="250" height="970" as="geometry" />
        </mxCell>
        <mxCell id="60571a20871a0731-3" value="" style="whiteSpace=wrap;html=1;rounded=0;shadow=0;comic=0;labelBackgroundColor=none;strokeWidth=1;fillColor=#000000;fontFamily=Verdana;fontSize=12;align=center;rotation=0;" parent="1c1d494c118603dd-3" vertex="1">
          <mxGeometry x="30" y="160" width="147" height="10" as="geometry" />
        </mxCell>
        <mxCell id="1c1d494c118603dd-40" style="edgeStyle=none;rounded=0;html=1;labelBackgroundColor=none;startArrow=none;startFill=0;startSize=5;endArrow=classicThin;endFill=1;endSize=5;jettySize=auto;orthogonalLoop=1;strokeWidth=1;fontFamily=Verdana;fontSize=12" parent="1c1d494c118603dd-3" source="1c1d494c118603dd-11" target="1c1d494c118603dd-15" edge="1">
          <mxGeometry relative="1" as="geometry" />
        </mxCell>
        <mxCell id="1c1d494c118603dd-11" value="Action" style="rounded=1;whiteSpace=wrap;html=1;shadow=0;comic=0;labelBackgroundColor=none;strokeWidth=1;fontFamily=Verdana;fontSize=12;align=center;arcSize=50;" parent="1c1d494c118603dd-3" vertex="1">
          <mxGeometry x="64" y="450" width="100" height="30" as="geometry" />
        </mxCell>
        <mxCell id="1c1d494c118603dd-39" style="edgeStyle=none;rounded=0;html=1;labelBackgroundColor=none;startArrow=none;startFill=0;startSize=5;endArrow=classicThin;endFill=1;endSize=5;jettySize=auto;orthogonalLoop=1;strokeWidth=1;fontFamily=Verdana;fontSize=12" parent="1c1d494c118603dd-3" source="1c1d494c118603dd-12" target="1c1d494c118603dd-11" edge="1">
          <mxGeometry relative="1" as="geometry" />
        </mxCell>
        <mxCell id="1c1d494c118603dd-12" value="" style="whiteSpace=wrap;html=1;rounded=0;shadow=0;comic=0;labelBackgroundColor=none;strokeWidth=1;fillColor=#000000;fontFamily=Verdana;fontSize=12;align=center;rotation=0;" parent="1c1d494c118603dd-3" vertex="1">
          <mxGeometry x="40" y="410" width="147" height="10" as="geometry" />
        </mxCell>
        <mxCell id="1c1d494c118603dd-32" style="edgeStyle=orthogonalEdgeStyle;rounded=0;html=1;entryX=0.25;entryY=0;labelBackgroundColor=none;startArrow=none;startFill=0;startSize=5;endArrow=classicThin;endFill=1;endSize=5;jettySize=auto;orthogonalLoop=1;strokeWidth=1;fontFamily=Verdana;fontSize=12" parent="1c1d494c118603dd-3" source="1c1d494c118603dd-14" target="1c1d494c118603dd-12" edge="1">
          <mxGeometry relative="1" as="geometry" />
        </mxCell>
        <mxCell id="1c1d494c118603dd-14" value="Object" style="rounded=0;whiteSpace=wrap;html=1;shadow=0;comic=0;labelBackgroundColor=none;strokeWidth=1;fontFamily=Verdana;fontSize=12;align=center;arcSize=50;" parent="1c1d494c118603dd-3" vertex="1">
          <mxGeometry x="-40" y="365" width="70" height="30" as="geometry" />
        </mxCell>
        <mxCell id="1c1d494c118603dd-41" style="edgeStyle=none;rounded=0;html=1;labelBackgroundColor=none;startArrow=none;startFill=0;startSize=5;endArrow=classicThin;endFill=1;endSize=5;jettySize=auto;orthogonalLoop=1;strokeWidth=1;fontFamily=Verdana;fontSize=12" parent="1c1d494c118603dd-3" source="1c1d494c118603dd-15" target="1c1d494c118603dd-16" edge="1">
          <mxGeometry relative="1" as="geometry" />
        </mxCell>
        <mxCell id="1c1d494c118603dd-15" value="Object" style="rounded=0;whiteSpace=wrap;html=1;shadow=0;comic=0;labelBackgroundColor=none;strokeWidth=1;fontFamily=Verdana;fontSize=12;align=center;arcSize=50;" parent="1c1d494c118603dd-3" vertex="1">
          <mxGeometry x="125" y="510" width="70" height="30" as="geometry" />
        </mxCell>
        <mxCell id="1c1d494c118603dd-16" value="Action" style="rounded=1;whiteSpace=wrap;html=1;shadow=0;comic=0;labelBackgroundColor=none;strokeWidth=1;fontFamily=Verdana;fontSize=12;align=center;arcSize=50;" parent="1c1d494c118603dd-3" vertex="1">
          <mxGeometry x="85" y="580" width="100" height="30" as="geometry" />
        </mxCell>
        <mxCell id="1c1d494c118603dd-52" style="edgeStyle=none;rounded=0;html=1;dashed=1;labelBackgroundColor=none;startArrow=none;startFill=0;startSize=5;endArrow=oval;endFill=0;endSize=5;jettySize=auto;orthogonalLoop=1;strokeWidth=1;fontFamily=Verdana;fontSize=12" parent="1c1d494c118603dd-3" source="1c1d494c118603dd-23" target="1c1d494c118603dd-11" edge="1">
          <mxGeometry relative="1" as="geometry" />
        </mxCell>
        <mxCell id="1c1d494c118603dd-53" style="edgeStyle=none;rounded=0;html=1;dashed=1;labelBackgroundColor=none;startArrow=none;startFill=0;startSize=5;endArrow=oval;endFill=0;endSize=5;jettySize=auto;orthogonalLoop=1;strokeWidth=1;fontFamily=Verdana;fontSize=12" parent="1c1d494c118603dd-3" source="1c1d494c118603dd-23" target="1c1d494c118603dd-15" edge="1">
          <mxGeometry relative="1" as="geometry" />
        </mxCell>
        <mxCell id="1c1d494c118603dd-23" value="Note" style="shape=note;whiteSpace=wrap;html=1;rounded=0;shadow=0;comic=0;labelBackgroundColor=none;strokeWidth=1;fontFamily=Verdana;fontSize=12;align=center;size=20;" parent="1c1d494c118603dd-3" vertex="1">
          <mxGeometry x="10" y="510" width="90" height="55" as="geometry" />
        </mxCell>
        <mxCell id="1c1d494c118603dd-54" style="edgeStyle=none;rounded=0;html=1;dashed=1;labelBackgroundColor=none;startArrow=none;startFill=0;startSize=5;endArrow=oval;endFill=0;endSize=5;jettySize=auto;orthogonalLoop=1;strokeWidth=1;fontFamily=Verdana;fontSize=12" parent="1c1d494c118603dd-3" source="1c1d494c118603dd-24" target="1c1d494c118603dd-16" edge="1">
          <mxGeometry relative="1" as="geometry" />
        </mxCell>
        <mxCell id="1c1d494c118603dd-24" value="Note" style="shape=note;whiteSpace=wrap;html=1;rounded=0;shadow=0;comic=0;labelBackgroundColor=none;strokeWidth=1;fontFamily=Verdana;fontSize=12;align=center;size=20;" parent="1c1d494c118603dd-3" vertex="1">
          <mxGeometry x="40" y="648" width="105" height="55" as="geometry" />
        </mxCell>
        <mxCell id="1c1d494c118603dd-4" value="Lane 3" style="swimlane;html=1;startSize=20;" parent="1c1d494c118603dd-1" vertex="1">
          <mxGeometry x="500" y="20" width="250" height="970" as="geometry" />
        </mxCell>
        <mxCell id="1c1d494c118603dd-27" style="edgeStyle=orthogonalEdgeStyle;rounded=0;html=1;labelBackgroundColor=none;startArrow=none;startFill=0;startSize=5;endArrow=classicThin;endFill=1;endSize=5;jettySize=auto;orthogonalLoop=1;strokeWidth=1;fontFamily=Verdana;fontSize=12" parent="1c1d494c118603dd-4" source="60571a20871a0731-4" target="60571a20871a0731-8" edge="1">
          <mxGeometry relative="1" as="geometry" />
        </mxCell>
        <mxCell id="60571a20871a0731-4" value="" style="ellipse;whiteSpace=wrap;html=1;rounded=0;shadow=0;comic=0;labelBackgroundColor=none;strokeWidth=1;fillColor=#000000;fontFamily=Verdana;fontSize=12;align=center;" parent="1c1d494c118603dd-4" vertex="1">
          <mxGeometry x="80" y="40" width="40" height="40" as="geometry" />
        </mxCell>
        <mxCell id="60571a20871a0731-8" value="Action" style="rounded=1;whiteSpace=wrap;html=1;shadow=0;comic=0;labelBackgroundColor=none;strokeWidth=1;fontFamily=Verdana;fontSize=12;align=center;arcSize=50;" parent="1c1d494c118603dd-4" vertex="1">
          <mxGeometry x="50" y="110" width="100" height="30" as="geometry" />
        </mxCell>
        <mxCell id="1c1d494c118603dd-33" style="rounded=0;html=1;labelBackgroundColor=none;startArrow=none;startFill=0;startSize=5;endArrow=classicThin;endFill=1;endSize=5;jettySize=auto;orthogonalLoop=1;strokeWidth=1;fontFamily=Verdana;fontSize=12" parent="1c1d494c118603dd-4" source="1c1d494c118603dd-5" target="1c1d494c118603dd-9" edge="1">
          <mxGeometry relative="1" as="geometry" />
        </mxCell>
        <mxCell id="1c1d494c118603dd-5" value="Action" style="rounded=1;whiteSpace=wrap;html=1;shadow=0;comic=0;labelBackgroundColor=none;strokeWidth=1;fontFamily=Verdana;fontSize=12;align=center;arcSize=50;" parent="1c1d494c118603dd-4" vertex="1">
          <mxGeometry x="45" y="208" width="100" height="30" as="geometry" />
        </mxCell>
        <mxCell id="1c1d494c118603dd-38" style="edgeStyle=none;rounded=0;html=1;labelBackgroundColor=none;startArrow=none;startFill=0;startSize=5;endArrow=classicThin;endFill=1;endSize=5;jettySize=auto;orthogonalLoop=1;strokeWidth=1;fontFamily=Verdana;fontSize=12" parent="1c1d494c118603dd-4" source="1c1d494c118603dd-8" target="1c1d494c118603dd-13" edge="1">
          <mxGeometry relative="1" as="geometry" />
        </mxCell>
        <mxCell id="1c1d494c118603dd-8" value="Action" style="rounded=1;whiteSpace=wrap;html=1;shadow=0;comic=0;labelBackgroundColor=none;strokeWidth=1;fontFamily=Verdana;fontSize=12;align=center;arcSize=50;" parent="1c1d494c118603dd-4" vertex="1">
          <mxGeometry x="85" y="330" width="100" height="30" as="geometry" />
        </mxCell>
        <mxCell id="1c1d494c118603dd-37" style="edgeStyle=none;rounded=0;html=1;labelBackgroundColor=none;startArrow=none;startFill=0;startSize=5;endArrow=classicThin;endFill=1;endSize=5;jettySize=auto;orthogonalLoop=1;strokeWidth=1;fontFamily=Verdana;fontSize=12" parent="1c1d494c118603dd-4" source="1c1d494c118603dd-9" target="1c1d494c118603dd-8" edge="1">
          <mxGeometry relative="1" as="geometry" />
        </mxCell>
        <mxCell id="1c1d494c118603dd-9" value="Object" style="rounded=0;whiteSpace=wrap;html=1;shadow=0;comic=0;labelBackgroundColor=none;strokeWidth=1;fontFamily=Verdana;fontSize=12;align=center;arcSize=50;" parent="1c1d494c118603dd-4" vertex="1">
          <mxGeometry x="15" y="268" width="70" height="30" as="geometry" />
        </mxCell>
        <mxCell id="1c1d494c118603dd-13" value="Object" style="rounded=0;whiteSpace=wrap;html=1;shadow=0;comic=0;labelBackgroundColor=none;strokeWidth=1;fontFamily=Verdana;fontSize=12;align=center;arcSize=50;" parent="1c1d494c118603dd-4" vertex="1">
          <mxGeometry x="-35" y="360" width="70" height="30" as="geometry" />
        </mxCell>
        <mxCell id="1c1d494c118603dd-43" style="edgeStyle=none;rounded=0;html=1;labelBackgroundColor=none;startArrow=none;startFill=0;startSize=5;endArrow=classicThin;endFill=1;endSize=5;jettySize=auto;orthogonalLoop=1;strokeWidth=1;fontFamily=Verdana;fontSize=12" parent="1c1d494c118603dd-4" source="1c1d494c118603dd-17" target="1c1d494c118603dd-18" edge="1">
          <mxGeometry relative="1" as="geometry" />
        </mxCell>
        <mxCell id="1c1d494c118603dd-17" value="Object" style="rounded=0;whiteSpace=wrap;html=1;shadow=0;comic=0;labelBackgroundColor=none;strokeWidth=1;fontFamily=Verdana;fontSize=12;align=center;arcSize=50;" parent="1c1d494c118603dd-4" vertex="1">
          <mxGeometry x="-35" y="610" width="70" height="30" as="geometry" />
        </mxCell>
        <mxCell id="1c1d494c118603dd-44" style="edgeStyle=none;rounded=0;html=1;labelBackgroundColor=none;startArrow=none;startFill=0;startSize=5;endArrow=classicThin;endFill=1;endSize=5;jettySize=auto;orthogonalLoop=1;strokeWidth=1;fontFamily=Verdana;fontSize=12" parent="1c1d494c118603dd-4" source="1c1d494c118603dd-18" target="1c1d494c118603dd-19" edge="1">
          <mxGeometry relative="1" as="geometry" />
        </mxCell>
        <mxCell id="1c1d494c118603dd-18" value="Action" style="rounded=1;whiteSpace=wrap;html=1;shadow=0;comic=0;labelBackgroundColor=none;strokeWidth=1;fontFamily=Verdana;fontSize=12;align=center;arcSize=50;" parent="1c1d494c118603dd-4" vertex="1">
          <mxGeometry x="70" y="670" width="100" height="30" as="geometry" />
        </mxCell>
        <mxCell id="1c1d494c118603dd-45" style="edgeStyle=none;rounded=0;html=1;labelBackgroundColor=none;startArrow=none;startFill=0;startSize=5;endArrow=classicThin;endFill=1;endSize=5;jettySize=auto;orthogonalLoop=1;strokeWidth=1;fontFamily=Verdana;fontSize=12" parent="1c1d494c118603dd-4" source="1c1d494c118603dd-19" target="60571a20871a0731-5" edge="1">
          <mxGeometry relative="1" as="geometry" />
        </mxCell>
        <mxCell id="1c1d494c118603dd-19" value="Action" style="rounded=1;whiteSpace=wrap;html=1;shadow=0;comic=0;labelBackgroundColor=none;strokeWidth=1;fontFamily=Verdana;fontSize=12;align=center;arcSize=50;" parent="1c1d494c118603dd-4" vertex="1">
          <mxGeometry x="70" y="810" width="100" height="30" as="geometry" />
        </mxCell>
        <mxCell id="60571a20871a0731-5" value="" style="shape=mxgraph.bpmn.shape;html=1;verticalLabelPosition=bottom;labelBackgroundColor=#ffffff;verticalAlign=top;perimeter=ellipsePerimeter;outline=end;symbol=terminate;rounded=0;shadow=0;comic=0;strokeWidth=1;fontFamily=Verdana;fontSize=12;align=center;" parent="1c1d494c118603dd-4" vertex="1">
          <mxGeometry x="100" y="880" width="40" height="40" as="geometry" />
        </mxCell>
        <mxCell id="1c1d494c118603dd-48" style="edgeStyle=none;rounded=0;html=1;dashed=1;labelBackgroundColor=none;startArrow=none;startFill=0;startSize=5;endArrow=oval;endFill=0;endSize=5;jettySize=auto;orthogonalLoop=1;strokeWidth=1;fontFamily=Verdana;fontSize=12" parent="1c1d494c118603dd-4" source="1c1d494c118603dd-20" target="1c1d494c118603dd-5" edge="1">
          <mxGeometry relative="1" as="geometry" />
        </mxCell>
        <mxCell id="1c1d494c118603dd-49" style="edgeStyle=none;rounded=0;html=1;dashed=1;labelBackgroundColor=none;startArrow=none;startFill=0;startSize=5;endArrow=oval;endFill=0;endSize=5;jettySize=auto;orthogonalLoop=1;strokeWidth=1;fontFamily=Verdana;fontSize=12" parent="1c1d494c118603dd-4" source="1c1d494c118603dd-20" target="1c1d494c118603dd-9" edge="1">
          <mxGeometry relative="1" as="geometry" />
        </mxCell>
        <mxCell id="1c1d494c118603dd-20" value="Note" style="shape=note;whiteSpace=wrap;html=1;rounded=0;shadow=0;comic=0;labelBackgroundColor=none;strokeWidth=1;fontFamily=Verdana;fontSize=12;align=center;size=20;" parent="1c1d494c118603dd-4" vertex="1">
          <mxGeometry x="160" y="256" width="75" height="44" as="geometry" />
        </mxCell>
        <mxCell id="1c1d494c118603dd-50" style="edgeStyle=none;rounded=0;html=1;dashed=1;labelBackgroundColor=none;startArrow=none;startFill=0;startSize=5;endArrow=oval;endFill=0;endSize=5;jettySize=auto;orthogonalLoop=1;strokeWidth=1;fontFamily=Verdana;fontSize=12" parent="1c1d494c118603dd-4" source="1c1d494c118603dd-22" target="1c1d494c118603dd-8" edge="1">
          <mxGeometry relative="1" as="geometry" />
        </mxCell>
        <mxCell id="1c1d494c118603dd-51" style="edgeStyle=none;rounded=0;html=1;dashed=1;labelBackgroundColor=none;startArrow=none;startFill=0;startSize=5;endArrow=oval;endFill=0;endSize=5;jettySize=auto;orthogonalLoop=1;strokeWidth=1;fontFamily=Verdana;fontSize=12" parent="1c1d494c118603dd-4" source="1c1d494c118603dd-22" target="1c1d494c118603dd-13" edge="1">
          <mxGeometry relative="1" as="geometry" />
        </mxCell>
        <mxCell id="1c1d494c118603dd-22" value="Note" style="shape=note;whiteSpace=wrap;html=1;rounded=0;shadow=0;comic=0;labelBackgroundColor=none;strokeWidth=1;fontFamily=Verdana;fontSize=12;align=center;size=20;" parent="1c1d494c118603dd-4" vertex="1">
          <mxGeometry x="110" y="415" width="105" height="55" as="geometry" />
        </mxCell>
        <mxCell id="1c1d494c118603dd-56" style="edgeStyle=none;rounded=0;html=1;dashed=1;labelBackgroundColor=none;startArrow=none;startFill=0;startSize=5;endArrow=oval;endFill=0;endSize=5;jettySize=auto;orthogonalLoop=1;strokeWidth=1;fontFamily=Verdana;fontSize=12" parent="1c1d494c118603dd-4" source="1c1d494c118603dd-25" target="1c1d494c118603dd-18" edge="1">
          <mxGeometry relative="1" as="geometry" />
        </mxCell>
        <mxCell id="1c1d494c118603dd-57" style="edgeStyle=none;rounded=0;html=1;dashed=1;labelBackgroundColor=none;startArrow=none;startFill=0;startSize=5;endArrow=oval;endFill=0;endSize=5;jettySize=auto;orthogonalLoop=1;strokeWidth=1;fontFamily=Verdana;fontSize=12" parent="1c1d494c118603dd-4" source="1c1d494c118603dd-25" target="1c1d494c118603dd-17" edge="1">
          <mxGeometry relative="1" as="geometry" />
        </mxCell>
        <mxCell id="1c1d494c118603dd-25" value="Note" style="shape=note;whiteSpace=wrap;html=1;rounded=0;shadow=0;comic=0;labelBackgroundColor=none;strokeWidth=1;fontFamily=Verdana;fontSize=12;align=center;size=20;" parent="1c1d494c118603dd-4" vertex="1">
          <mxGeometry x="120" y="590" width="115" height="50" as="geometry" />
        </mxCell>
        <mxCell id="1c1d494c118603dd-58" style="edgeStyle=none;rounded=0;html=1;dashed=1;labelBackgroundColor=none;startArrow=none;startFill=0;startSize=5;endArrow=oval;endFill=0;endSize=5;jettySize=auto;orthogonalLoop=1;strokeWidth=1;fontFamily=Verdana;fontSize=12" parent="1c1d494c118603dd-4" source="1c1d494c118603dd-26" target="1c1d494c118603dd-19" edge="1">
          <mxGeometry relative="1" as="geometry" />
        </mxCell>
        <mxCell id="1c1d494c118603dd-26" value="Note" style="shape=note;whiteSpace=wrap;html=1;rounded=0;shadow=0;comic=0;labelBackgroundColor=none;strokeWidth=1;fontFamily=Verdana;fontSize=12;align=center;size=20;" parent="1c1d494c118603dd-4" vertex="1">
          <mxGeometry x="150" y="740" width="95" height="45" as="geometry" />
        </mxCell>
        <mxCell id="1c1d494c118603dd-28" style="edgeStyle=orthogonalEdgeStyle;rounded=0;html=1;entryX=0.5;entryY=0;labelBackgroundColor=none;startArrow=none;startFill=0;startSize=5;endArrow=classicThin;endFill=1;endSize=5;jettySize=auto;orthogonalLoop=1;strokeWidth=1;fontFamily=Verdana;fontSize=12" parent="1c1d494c118603dd-1" source="60571a20871a0731-8" target="60571a20871a0731-3" edge="1">
          <mxGeometry relative="1" as="geometry">
            <Array as="points">
              <mxPoint x="354" y="145" />
            </Array>
          </mxGeometry>
        </mxCell>
        <mxCell id="1c1d494c118603dd-29" style="edgeStyle=orthogonalEdgeStyle;rounded=0;html=1;exitX=0.75;exitY=1;labelBackgroundColor=none;startArrow=none;startFill=0;startSize=5;endArrow=classicThin;endFill=1;endSize=5;jettySize=auto;orthogonalLoop=1;strokeWidth=1;fontFamily=Verdana;fontSize=12" parent="1c1d494c118603dd-1" source="60571a20871a0731-3" target="1c1d494c118603dd-5" edge="1">
          <mxGeometry relative="1" as="geometry">
            <Array as="points">
              <mxPoint x="390" y="210" />
              <mxPoint x="595" y="210" />
            </Array>
          </mxGeometry>
        </mxCell>
        <mxCell id="1c1d494c118603dd-30" style="edgeStyle=orthogonalEdgeStyle;rounded=0;html=1;exitX=0.25;exitY=1;entryX=0.5;entryY=0;labelBackgroundColor=none;startArrow=none;startFill=0;startSize=5;endArrow=classicThin;endFill=1;endSize=5;jettySize=auto;orthogonalLoop=1;strokeWidth=1;fontFamily=Verdana;fontSize=12" parent="1c1d494c118603dd-1" source="60571a20871a0731-3" target="1c1d494c118603dd-6" edge="1">
          <mxGeometry relative="1" as="geometry">
            <Array as="points">
              <mxPoint x="317" y="210" />
              <mxPoint x="140" y="210" />
            </Array>
          </mxGeometry>
        </mxCell>
        <mxCell id="1c1d494c118603dd-31" style="edgeStyle=orthogonalEdgeStyle;rounded=0;html=1;entryX=0.75;entryY=0;labelBackgroundColor=none;startArrow=none;startFill=0;startSize=5;endArrow=classicThin;endFill=1;endSize=5;jettySize=auto;orthogonalLoop=1;strokeWidth=1;fontFamily=Verdana;fontSize=12" parent="1c1d494c118603dd-1" source="1c1d494c118603dd-13" target="1c1d494c118603dd-12" edge="1">
          <mxGeometry relative="1" as="geometry" />
        </mxCell>
        <mxCell id="1c1d494c118603dd-36" style="edgeStyle=none;rounded=0;html=1;labelBackgroundColor=none;startArrow=none;startFill=0;startSize=5;endArrow=classicThin;endFill=1;endSize=5;jettySize=auto;orthogonalLoop=1;strokeWidth=1;fontFamily=Verdana;fontSize=12" parent="1c1d494c118603dd-1" source="1c1d494c118603dd-7" target="1c1d494c118603dd-14" edge="1">
          <mxGeometry relative="1" as="geometry" />
        </mxCell>
        <mxCell id="1c1d494c118603dd-42" style="edgeStyle=none;rounded=0;html=1;labelBackgroundColor=none;startArrow=none;startFill=0;startSize=5;endArrow=classicThin;endFill=1;endSize=5;jettySize=auto;orthogonalLoop=1;strokeWidth=1;fontFamily=Verdana;fontSize=12" parent="1c1d494c118603dd-1" source="1c1d494c118603dd-16" target="1c1d494c118603dd-17" edge="1">
          <mxGeometry relative="1" as="geometry" />
        </mxCell>
        <mxCell id="1c1d494c118603dd-55" style="edgeStyle=none;rounded=0;html=1;dashed=1;labelBackgroundColor=none;startArrow=none;startFill=0;startSize=5;endArrow=oval;endFill=0;endSize=5;jettySize=auto;orthogonalLoop=1;strokeWidth=1;fontFamily=Verdana;fontSize=12" parent="1c1d494c118603dd-1" source="1c1d494c118603dd-24" target="1c1d494c118603dd-17" edge="1">
          <mxGeometry relative="1" as="geometry" />
        </mxCell>
        <mxCell id="oqjdxSJvpz8lTfiW78SW-1" value="Lane 3" style="swimlane;html=1;startSize=20;" vertex="1" parent="1">
          <mxGeometry x="790" y="40" width="250" height="970" as="geometry" />
        </mxCell>
        <mxCell id="oqjdxSJvpz8lTfiW78SW-2" style="edgeStyle=orthogonalEdgeStyle;rounded=0;html=1;labelBackgroundColor=none;startArrow=none;startFill=0;startSize=5;endArrow=classicThin;endFill=1;endSize=5;jettySize=auto;orthogonalLoop=1;strokeWidth=1;fontFamily=Verdana;fontSize=12" edge="1" parent="oqjdxSJvpz8lTfiW78SW-1" source="oqjdxSJvpz8lTfiW78SW-3" target="oqjdxSJvpz8lTfiW78SW-4">
          <mxGeometry relative="1" as="geometry" />
        </mxCell>
        <mxCell id="oqjdxSJvpz8lTfiW78SW-3" value="" style="ellipse;whiteSpace=wrap;html=1;rounded=0;shadow=0;comic=0;labelBackgroundColor=none;strokeWidth=1;fillColor=#000000;fontFamily=Verdana;fontSize=12;align=center;" vertex="1" parent="oqjdxSJvpz8lTfiW78SW-1">
          <mxGeometry x="80" y="40" width="40" height="40" as="geometry" />
        </mxCell>
        <mxCell id="oqjdxSJvpz8lTfiW78SW-4" value="Action" style="rounded=1;whiteSpace=wrap;html=1;shadow=0;comic=0;labelBackgroundColor=none;strokeWidth=1;fontFamily=Verdana;fontSize=12;align=center;arcSize=50;" vertex="1" parent="oqjdxSJvpz8lTfiW78SW-1">
          <mxGeometry x="50" y="110" width="100" height="30" as="geometry" />
        </mxCell>
        <mxCell id="oqjdxSJvpz8lTfiW78SW-5" style="rounded=0;html=1;labelBackgroundColor=none;startArrow=none;startFill=0;startSize=5;endArrow=classicThin;endFill=1;endSize=5;jettySize=auto;orthogonalLoop=1;strokeWidth=1;fontFamily=Verdana;fontSize=12" edge="1" parent="oqjdxSJvpz8lTfiW78SW-1" source="oqjdxSJvpz8lTfiW78SW-6" target="oqjdxSJvpz8lTfiW78SW-10">
          <mxGeometry relative="1" as="geometry" />
        </mxCell>
        <mxCell id="oqjdxSJvpz8lTfiW78SW-6" value="Action" style="rounded=1;whiteSpace=wrap;html=1;shadow=0;comic=0;labelBackgroundColor=none;strokeWidth=1;fontFamily=Verdana;fontSize=12;align=center;arcSize=50;" vertex="1" parent="oqjdxSJvpz8lTfiW78SW-1">
          <mxGeometry x="45" y="208" width="100" height="30" as="geometry" />
        </mxCell>
        <mxCell id="oqjdxSJvpz8lTfiW78SW-7" style="edgeStyle=none;rounded=0;html=1;labelBackgroundColor=none;startArrow=none;startFill=0;startSize=5;endArrow=classicThin;endFill=1;endSize=5;jettySize=auto;orthogonalLoop=1;strokeWidth=1;fontFamily=Verdana;fontSize=12" edge="1" parent="oqjdxSJvpz8lTfiW78SW-1" source="oqjdxSJvpz8lTfiW78SW-8" target="oqjdxSJvpz8lTfiW78SW-11">
          <mxGeometry relative="1" as="geometry" />
        </mxCell>
        <mxCell id="oqjdxSJvpz8lTfiW78SW-8" value="Action" style="rounded=1;whiteSpace=wrap;html=1;shadow=0;comic=0;labelBackgroundColor=none;strokeWidth=1;fontFamily=Verdana;fontSize=12;align=center;arcSize=50;" vertex="1" parent="oqjdxSJvpz8lTfiW78SW-1">
          <mxGeometry x="85" y="330" width="100" height="30" as="geometry" />
        </mxCell>
        <mxCell id="oqjdxSJvpz8lTfiW78SW-9" style="edgeStyle=none;rounded=0;html=1;labelBackgroundColor=none;startArrow=none;startFill=0;startSize=5;endArrow=classicThin;endFill=1;endSize=5;jettySize=auto;orthogonalLoop=1;strokeWidth=1;fontFamily=Verdana;fontSize=12" edge="1" parent="oqjdxSJvpz8lTfiW78SW-1" source="oqjdxSJvpz8lTfiW78SW-10" target="oqjdxSJvpz8lTfiW78SW-8">
          <mxGeometry relative="1" as="geometry" />
        </mxCell>
        <mxCell id="oqjdxSJvpz8lTfiW78SW-10" value="Object" style="rounded=0;whiteSpace=wrap;html=1;shadow=0;comic=0;labelBackgroundColor=none;strokeWidth=1;fontFamily=Verdana;fontSize=12;align=center;arcSize=50;" vertex="1" parent="oqjdxSJvpz8lTfiW78SW-1">
          <mxGeometry x="15" y="268" width="70" height="30" as="geometry" />
        </mxCell>
        <mxCell id="oqjdxSJvpz8lTfiW78SW-11" value="Object" style="rounded=0;whiteSpace=wrap;html=1;shadow=0;comic=0;labelBackgroundColor=none;strokeWidth=1;fontFamily=Verdana;fontSize=12;align=center;arcSize=50;" vertex="1" parent="oqjdxSJvpz8lTfiW78SW-1">
          <mxGeometry x="-35" y="360" width="70" height="30" as="geometry" />
        </mxCell>
        <mxCell id="oqjdxSJvpz8lTfiW78SW-12" style="edgeStyle=none;rounded=0;html=1;labelBackgroundColor=none;startArrow=none;startFill=0;startSize=5;endArrow=classicThin;endFill=1;endSize=5;jettySize=auto;orthogonalLoop=1;strokeWidth=1;fontFamily=Verdana;fontSize=12" edge="1" parent="oqjdxSJvpz8lTfiW78SW-1" source="oqjdxSJvpz8lTfiW78SW-13" target="oqjdxSJvpz8lTfiW78SW-15">
          <mxGeometry relative="1" as="geometry" />
        </mxCell>
        <mxCell id="oqjdxSJvpz8lTfiW78SW-13" value="Object" style="rounded=0;whiteSpace=wrap;html=1;shadow=0;comic=0;labelBackgroundColor=none;strokeWidth=1;fontFamily=Verdana;fontSize=12;align=center;arcSize=50;" vertex="1" parent="oqjdxSJvpz8lTfiW78SW-1">
          <mxGeometry x="-35" y="610" width="70" height="30" as="geometry" />
        </mxCell>
        <mxCell id="oqjdxSJvpz8lTfiW78SW-14" style="edgeStyle=none;rounded=0;html=1;labelBackgroundColor=none;startArrow=none;startFill=0;startSize=5;endArrow=classicThin;endFill=1;endSize=5;jettySize=auto;orthogonalLoop=1;strokeWidth=1;fontFamily=Verdana;fontSize=12" edge="1" parent="oqjdxSJvpz8lTfiW78SW-1" source="oqjdxSJvpz8lTfiW78SW-15" target="oqjdxSJvpz8lTfiW78SW-17">
          <mxGeometry relative="1" as="geometry" />
        </mxCell>
        <mxCell id="oqjdxSJvpz8lTfiW78SW-15" value="Action" style="rounded=1;whiteSpace=wrap;html=1;shadow=0;comic=0;labelBackgroundColor=none;strokeWidth=1;fontFamily=Verdana;fontSize=12;align=center;arcSize=50;" vertex="1" parent="oqjdxSJvpz8lTfiW78SW-1">
          <mxGeometry x="70" y="670" width="100" height="30" as="geometry" />
        </mxCell>
        <mxCell id="oqjdxSJvpz8lTfiW78SW-16" style="edgeStyle=none;rounded=0;html=1;labelBackgroundColor=none;startArrow=none;startFill=0;startSize=5;endArrow=classicThin;endFill=1;endSize=5;jettySize=auto;orthogonalLoop=1;strokeWidth=1;fontFamily=Verdana;fontSize=12" edge="1" parent="oqjdxSJvpz8lTfiW78SW-1" source="oqjdxSJvpz8lTfiW78SW-17" target="oqjdxSJvpz8lTfiW78SW-18">
          <mxGeometry relative="1" as="geometry" />
        </mxCell>
        <mxCell id="oqjdxSJvpz8lTfiW78SW-17" value="Action" style="rounded=1;whiteSpace=wrap;html=1;shadow=0;comic=0;labelBackgroundColor=none;strokeWidth=1;fontFamily=Verdana;fontSize=12;align=center;arcSize=50;" vertex="1" parent="oqjdxSJvpz8lTfiW78SW-1">
          <mxGeometry x="70" y="810" width="100" height="30" as="geometry" />
        </mxCell>
        <mxCell id="oqjdxSJvpz8lTfiW78SW-18" value="" style="shape=mxgraph.bpmn.shape;html=1;verticalLabelPosition=bottom;labelBackgroundColor=#ffffff;verticalAlign=top;perimeter=ellipsePerimeter;outline=end;symbol=terminate;rounded=0;shadow=0;comic=0;strokeWidth=1;fontFamily=Verdana;fontSize=12;align=center;" vertex="1" parent="oqjdxSJvpz8lTfiW78SW-1">
          <mxGeometry x="100" y="880" width="40" height="40" as="geometry" />
        </mxCell>
        <mxCell id="oqjdxSJvpz8lTfiW78SW-19" style="edgeStyle=none;rounded=0;html=1;dashed=1;labelBackgroundColor=none;startArrow=none;startFill=0;startSize=5;endArrow=oval;endFill=0;endSize=5;jettySize=auto;orthogonalLoop=1;strokeWidth=1;fontFamily=Verdana;fontSize=12" edge="1" parent="oqjdxSJvpz8lTfiW78SW-1" source="oqjdxSJvpz8lTfiW78SW-21" target="oqjdxSJvpz8lTfiW78SW-6">
          <mxGeometry relative="1" as="geometry" />
        </mxCell>
        <mxCell id="oqjdxSJvpz8lTfiW78SW-20" style="edgeStyle=none;rounded=0;html=1;dashed=1;labelBackgroundColor=none;startArrow=none;startFill=0;startSize=5;endArrow=oval;endFill=0;endSize=5;jettySize=auto;orthogonalLoop=1;strokeWidth=1;fontFamily=Verdana;fontSize=12" edge="1" parent="oqjdxSJvpz8lTfiW78SW-1" source="oqjdxSJvpz8lTfiW78SW-21" target="oqjdxSJvpz8lTfiW78SW-10">
          <mxGeometry relative="1" as="geometry" />
        </mxCell>
        <mxCell id="oqjdxSJvpz8lTfiW78SW-21" value="Note" style="shape=note;whiteSpace=wrap;html=1;rounded=0;shadow=0;comic=0;labelBackgroundColor=none;strokeWidth=1;fontFamily=Verdana;fontSize=12;align=center;size=20;" vertex="1" parent="oqjdxSJvpz8lTfiW78SW-1">
          <mxGeometry x="160" y="256" width="75" height="44" as="geometry" />
        </mxCell>
        <mxCell id="oqjdxSJvpz8lTfiW78SW-22" style="edgeStyle=none;rounded=0;html=1;dashed=1;labelBackgroundColor=none;startArrow=none;startFill=0;startSize=5;endArrow=oval;endFill=0;endSize=5;jettySize=auto;orthogonalLoop=1;strokeWidth=1;fontFamily=Verdana;fontSize=12" edge="1" parent="oqjdxSJvpz8lTfiW78SW-1" source="oqjdxSJvpz8lTfiW78SW-24" target="oqjdxSJvpz8lTfiW78SW-8">
          <mxGeometry relative="1" as="geometry" />
        </mxCell>
        <mxCell id="oqjdxSJvpz8lTfiW78SW-23" style="edgeStyle=none;rounded=0;html=1;dashed=1;labelBackgroundColor=none;startArrow=none;startFill=0;startSize=5;endArrow=oval;endFill=0;endSize=5;jettySize=auto;orthogonalLoop=1;strokeWidth=1;fontFamily=Verdana;fontSize=12" edge="1" parent="oqjdxSJvpz8lTfiW78SW-1" source="oqjdxSJvpz8lTfiW78SW-24" target="oqjdxSJvpz8lTfiW78SW-11">
          <mxGeometry relative="1" as="geometry" />
        </mxCell>
        <mxCell id="oqjdxSJvpz8lTfiW78SW-24" value="Note" style="shape=note;whiteSpace=wrap;html=1;rounded=0;shadow=0;comic=0;labelBackgroundColor=none;strokeWidth=1;fontFamily=Verdana;fontSize=12;align=center;size=20;" vertex="1" parent="oqjdxSJvpz8lTfiW78SW-1">
          <mxGeometry x="110" y="415" width="105" height="55" as="geometry" />
        </mxCell>
        <mxCell id="oqjdxSJvpz8lTfiW78SW-25" style="edgeStyle=none;rounded=0;html=1;dashed=1;labelBackgroundColor=none;startArrow=none;startFill=0;startSize=5;endArrow=oval;endFill=0;endSize=5;jettySize=auto;orthogonalLoop=1;strokeWidth=1;fontFamily=Verdana;fontSize=12" edge="1" parent="oqjdxSJvpz8lTfiW78SW-1" source="oqjdxSJvpz8lTfiW78SW-27" target="oqjdxSJvpz8lTfiW78SW-15">
          <mxGeometry relative="1" as="geometry" />
        </mxCell>
        <mxCell id="oqjdxSJvpz8lTfiW78SW-26" style="edgeStyle=none;rounded=0;html=1;dashed=1;labelBackgroundColor=none;startArrow=none;startFill=0;startSize=5;endArrow=oval;endFill=0;endSize=5;jettySize=auto;orthogonalLoop=1;strokeWidth=1;fontFamily=Verdana;fontSize=12" edge="1" parent="oqjdxSJvpz8lTfiW78SW-1" source="oqjdxSJvpz8lTfiW78SW-27" target="oqjdxSJvpz8lTfiW78SW-13">
          <mxGeometry relative="1" as="geometry" />
        </mxCell>
        <mxCell id="oqjdxSJvpz8lTfiW78SW-27" value="Note" style="shape=note;whiteSpace=wrap;html=1;rounded=0;shadow=0;comic=0;labelBackgroundColor=none;strokeWidth=1;fontFamily=Verdana;fontSize=12;align=center;size=20;" vertex="1" parent="oqjdxSJvpz8lTfiW78SW-1">
          <mxGeometry x="120" y="590" width="115" height="50" as="geometry" />
        </mxCell>
        <mxCell id="oqjdxSJvpz8lTfiW78SW-28" style="edgeStyle=none;rounded=0;html=1;dashed=1;labelBackgroundColor=none;startArrow=none;startFill=0;startSize=5;endArrow=oval;endFill=0;endSize=5;jettySize=auto;orthogonalLoop=1;strokeWidth=1;fontFamily=Verdana;fontSize=12" edge="1" parent="oqjdxSJvpz8lTfiW78SW-1" source="oqjdxSJvpz8lTfiW78SW-29" target="oqjdxSJvpz8lTfiW78SW-17">
          <mxGeometry relative="1" as="geometry" />
        </mxCell>
        <mxCell id="oqjdxSJvpz8lTfiW78SW-29" value="Note" style="shape=note;whiteSpace=wrap;html=1;rounded=0;shadow=0;comic=0;labelBackgroundColor=none;strokeWidth=1;fontFamily=Verdana;fontSize=12;align=center;size=20;" vertex="1" parent="oqjdxSJvpz8lTfiW78SW-1">
          <mxGeometry x="150" y="740" width="95" height="45" as="geometry" />
        </mxCell>
      </root>
    </mxGraphModel>
  </diagram>
  <diagram id="ukumpwRK7lNUf9KRwLrz" name="Receive Order">
    <mxGraphModel dx="969" dy="529" grid="1" gridSize="10" guides="1" tooltips="1" connect="1" arrows="1" fold="1" page="1" pageScale="1" pageWidth="850" pageHeight="1100" math="0" shadow="0">
      <root>
        <mxCell id="0" />
        <mxCell id="1" parent="0" />
        <mxCell id="E2RvpgHc29IkUyafWSKe-1" value="Pool" style="swimlane;html=1;childLayout=stackLayout;startSize=20;rounded=0;shadow=0;comic=0;labelBackgroundColor=none;strokeWidth=1;fontFamily=Verdana;fontSize=12;align=center;" vertex="1" parent="1">
          <mxGeometry x="40" y="20" width="750" height="990" as="geometry" />
        </mxCell>
        <mxCell id="E2RvpgHc29IkUyafWSKe-2" value="Lane 1" style="swimlane;html=1;startSize=20;" vertex="1" parent="E2RvpgHc29IkUyafWSKe-1">
          <mxGeometry y="20" width="250" height="970" as="geometry" />
        </mxCell>
        <mxCell id="E2RvpgHc29IkUyafWSKe-3" style="edgeStyle=none;rounded=0;html=1;labelBackgroundColor=none;startArrow=none;startFill=0;startSize=5;endArrow=classicThin;endFill=1;endSize=5;jettySize=auto;orthogonalLoop=1;strokeWidth=1;fontFamily=Verdana;fontSize=12" edge="1" parent="E2RvpgHc29IkUyafWSKe-2" source="E2RvpgHc29IkUyafWSKe-4" target="E2RvpgHc29IkUyafWSKe-7">
          <mxGeometry relative="1" as="geometry" />
        </mxCell>
        <mxCell id="E2RvpgHc29IkUyafWSKe-4" value="Action" style="rounded=1;whiteSpace=wrap;html=1;shadow=0;comic=0;labelBackgroundColor=none;strokeWidth=1;fontFamily=Verdana;fontSize=12;align=center;arcSize=50;" vertex="1" parent="E2RvpgHc29IkUyafWSKe-2">
          <mxGeometry x="90" y="220" width="100" height="30" as="geometry" />
        </mxCell>
        <mxCell id="E2RvpgHc29IkUyafWSKe-5" value="Action" style="rounded=1;whiteSpace=wrap;html=1;shadow=0;comic=0;labelBackgroundColor=none;strokeWidth=1;fontFamily=Verdana;fontSize=12;align=center;arcSize=50;" vertex="1" parent="E2RvpgHc29IkUyafWSKe-2">
          <mxGeometry x="80" y="335" width="100" height="30" as="geometry" />
        </mxCell>
        <mxCell id="E2RvpgHc29IkUyafWSKe-6" style="edgeStyle=none;rounded=0;html=1;labelBackgroundColor=none;startArrow=none;startFill=0;startSize=5;endArrow=classicThin;endFill=1;endSize=5;jettySize=auto;orthogonalLoop=1;strokeWidth=1;fontFamily=Verdana;fontSize=12" edge="1" parent="E2RvpgHc29IkUyafWSKe-2" source="E2RvpgHc29IkUyafWSKe-7" target="E2RvpgHc29IkUyafWSKe-5">
          <mxGeometry relative="1" as="geometry" />
        </mxCell>
        <mxCell id="E2RvpgHc29IkUyafWSKe-7" value="Object" style="rounded=0;whiteSpace=wrap;html=1;shadow=0;comic=0;labelBackgroundColor=none;strokeWidth=1;fontFamily=Verdana;fontSize=12;align=center;arcSize=50;" vertex="1" parent="E2RvpgHc29IkUyafWSKe-2">
          <mxGeometry x="140" y="280" width="70" height="30" as="geometry" />
        </mxCell>
        <mxCell id="E2RvpgHc29IkUyafWSKe-8" style="edgeStyle=none;rounded=0;html=1;labelBackgroundColor=none;startArrow=none;startFill=0;startSize=5;endArrow=oval;endFill=0;endSize=5;jettySize=auto;orthogonalLoop=1;strokeWidth=1;fontFamily=Verdana;fontSize=12;dashed=1;" edge="1" parent="E2RvpgHc29IkUyafWSKe-2" source="E2RvpgHc29IkUyafWSKe-10" target="E2RvpgHc29IkUyafWSKe-4">
          <mxGeometry relative="1" as="geometry" />
        </mxCell>
        <mxCell id="E2RvpgHc29IkUyafWSKe-9" style="edgeStyle=none;rounded=0;html=1;dashed=1;labelBackgroundColor=none;startArrow=none;startFill=0;startSize=5;endArrow=oval;endFill=0;endSize=5;jettySize=auto;orthogonalLoop=1;strokeWidth=1;fontFamily=Verdana;fontSize=12" edge="1" parent="E2RvpgHc29IkUyafWSKe-2" source="E2RvpgHc29IkUyafWSKe-10" target="E2RvpgHc29IkUyafWSKe-7">
          <mxGeometry relative="1" as="geometry" />
        </mxCell>
        <mxCell id="E2RvpgHc29IkUyafWSKe-10" value="Note" style="shape=note;whiteSpace=wrap;html=1;rounded=0;shadow=0;comic=0;labelBackgroundColor=none;strokeWidth=1;fontFamily=Verdana;fontSize=12;align=center;size=20;" vertex="1" parent="E2RvpgHc29IkUyafWSKe-2">
          <mxGeometry x="20" y="274" width="85" height="42" as="geometry" />
        </mxCell>
        <mxCell id="E2RvpgHc29IkUyafWSKe-11" value="Lane 2" style="swimlane;html=1;startSize=20;" vertex="1" parent="E2RvpgHc29IkUyafWSKe-1">
          <mxGeometry x="250" y="20" width="250" height="970" as="geometry" />
        </mxCell>
        <mxCell id="E2RvpgHc29IkUyafWSKe-12" value="" style="whiteSpace=wrap;html=1;rounded=0;shadow=0;comic=0;labelBackgroundColor=none;strokeWidth=1;fillColor=#000000;fontFamily=Verdana;fontSize=12;align=center;rotation=0;" vertex="1" parent="E2RvpgHc29IkUyafWSKe-11">
          <mxGeometry x="30" y="160" width="147" height="10" as="geometry" />
        </mxCell>
        <mxCell id="E2RvpgHc29IkUyafWSKe-13" style="edgeStyle=none;rounded=0;html=1;labelBackgroundColor=none;startArrow=none;startFill=0;startSize=5;endArrow=classicThin;endFill=1;endSize=5;jettySize=auto;orthogonalLoop=1;strokeWidth=1;fontFamily=Verdana;fontSize=12" edge="1" parent="E2RvpgHc29IkUyafWSKe-11" source="E2RvpgHc29IkUyafWSKe-14" target="E2RvpgHc29IkUyafWSKe-20">
          <mxGeometry relative="1" as="geometry" />
        </mxCell>
        <mxCell id="E2RvpgHc29IkUyafWSKe-14" value="Action" style="rounded=1;whiteSpace=wrap;html=1;shadow=0;comic=0;labelBackgroundColor=none;strokeWidth=1;fontFamily=Verdana;fontSize=12;align=center;arcSize=50;" vertex="1" parent="E2RvpgHc29IkUyafWSKe-11">
          <mxGeometry x="64" y="450" width="100" height="30" as="geometry" />
        </mxCell>
        <mxCell id="E2RvpgHc29IkUyafWSKe-15" style="edgeStyle=none;rounded=0;html=1;labelBackgroundColor=none;startArrow=none;startFill=0;startSize=5;endArrow=classicThin;endFill=1;endSize=5;jettySize=auto;orthogonalLoop=1;strokeWidth=1;fontFamily=Verdana;fontSize=12" edge="1" parent="E2RvpgHc29IkUyafWSKe-11" source="E2RvpgHc29IkUyafWSKe-16" target="E2RvpgHc29IkUyafWSKe-14">
          <mxGeometry relative="1" as="geometry" />
        </mxCell>
        <mxCell id="E2RvpgHc29IkUyafWSKe-16" value="" style="whiteSpace=wrap;html=1;rounded=0;shadow=0;comic=0;labelBackgroundColor=none;strokeWidth=1;fillColor=#000000;fontFamily=Verdana;fontSize=12;align=center;rotation=0;" vertex="1" parent="E2RvpgHc29IkUyafWSKe-11">
          <mxGeometry x="40" y="410" width="147" height="10" as="geometry" />
        </mxCell>
        <mxCell id="E2RvpgHc29IkUyafWSKe-17" style="edgeStyle=orthogonalEdgeStyle;rounded=0;html=1;entryX=0.25;entryY=0;labelBackgroundColor=none;startArrow=none;startFill=0;startSize=5;endArrow=classicThin;endFill=1;endSize=5;jettySize=auto;orthogonalLoop=1;strokeWidth=1;fontFamily=Verdana;fontSize=12" edge="1" parent="E2RvpgHc29IkUyafWSKe-11" source="E2RvpgHc29IkUyafWSKe-18" target="E2RvpgHc29IkUyafWSKe-16">
          <mxGeometry relative="1" as="geometry" />
        </mxCell>
        <mxCell id="E2RvpgHc29IkUyafWSKe-18" value="Object" style="rounded=0;whiteSpace=wrap;html=1;shadow=0;comic=0;labelBackgroundColor=none;strokeWidth=1;fontFamily=Verdana;fontSize=12;align=center;arcSize=50;" vertex="1" parent="E2RvpgHc29IkUyafWSKe-11">
          <mxGeometry x="-40" y="365" width="70" height="30" as="geometry" />
        </mxCell>
        <mxCell id="E2RvpgHc29IkUyafWSKe-19" style="edgeStyle=none;rounded=0;html=1;labelBackgroundColor=none;startArrow=none;startFill=0;startSize=5;endArrow=classicThin;endFill=1;endSize=5;jettySize=auto;orthogonalLoop=1;strokeWidth=1;fontFamily=Verdana;fontSize=12" edge="1" parent="E2RvpgHc29IkUyafWSKe-11" source="E2RvpgHc29IkUyafWSKe-20" target="E2RvpgHc29IkUyafWSKe-21">
          <mxGeometry relative="1" as="geometry" />
        </mxCell>
        <mxCell id="E2RvpgHc29IkUyafWSKe-20" value="Object" style="rounded=0;whiteSpace=wrap;html=1;shadow=0;comic=0;labelBackgroundColor=none;strokeWidth=1;fontFamily=Verdana;fontSize=12;align=center;arcSize=50;" vertex="1" parent="E2RvpgHc29IkUyafWSKe-11">
          <mxGeometry x="125" y="510" width="70" height="30" as="geometry" />
        </mxCell>
        <mxCell id="E2RvpgHc29IkUyafWSKe-21" value="Action" style="rounded=1;whiteSpace=wrap;html=1;shadow=0;comic=0;labelBackgroundColor=none;strokeWidth=1;fontFamily=Verdana;fontSize=12;align=center;arcSize=50;" vertex="1" parent="E2RvpgHc29IkUyafWSKe-11">
          <mxGeometry x="85" y="580" width="100" height="30" as="geometry" />
        </mxCell>
        <mxCell id="E2RvpgHc29IkUyafWSKe-22" style="edgeStyle=none;rounded=0;html=1;dashed=1;labelBackgroundColor=none;startArrow=none;startFill=0;startSize=5;endArrow=oval;endFill=0;endSize=5;jettySize=auto;orthogonalLoop=1;strokeWidth=1;fontFamily=Verdana;fontSize=12" edge="1" parent="E2RvpgHc29IkUyafWSKe-11" source="E2RvpgHc29IkUyafWSKe-24" target="E2RvpgHc29IkUyafWSKe-14">
          <mxGeometry relative="1" as="geometry" />
        </mxCell>
        <mxCell id="E2RvpgHc29IkUyafWSKe-23" style="edgeStyle=none;rounded=0;html=1;dashed=1;labelBackgroundColor=none;startArrow=none;startFill=0;startSize=5;endArrow=oval;endFill=0;endSize=5;jettySize=auto;orthogonalLoop=1;strokeWidth=1;fontFamily=Verdana;fontSize=12" edge="1" parent="E2RvpgHc29IkUyafWSKe-11" source="E2RvpgHc29IkUyafWSKe-24" target="E2RvpgHc29IkUyafWSKe-20">
          <mxGeometry relative="1" as="geometry" />
        </mxCell>
        <mxCell id="E2RvpgHc29IkUyafWSKe-24" value="Note" style="shape=note;whiteSpace=wrap;html=1;rounded=0;shadow=0;comic=0;labelBackgroundColor=none;strokeWidth=1;fontFamily=Verdana;fontSize=12;align=center;size=20;" vertex="1" parent="E2RvpgHc29IkUyafWSKe-11">
          <mxGeometry x="10" y="510" width="90" height="55" as="geometry" />
        </mxCell>
        <mxCell id="E2RvpgHc29IkUyafWSKe-25" style="edgeStyle=none;rounded=0;html=1;dashed=1;labelBackgroundColor=none;startArrow=none;startFill=0;startSize=5;endArrow=oval;endFill=0;endSize=5;jettySize=auto;orthogonalLoop=1;strokeWidth=1;fontFamily=Verdana;fontSize=12" edge="1" parent="E2RvpgHc29IkUyafWSKe-11" source="E2RvpgHc29IkUyafWSKe-26" target="E2RvpgHc29IkUyafWSKe-21">
          <mxGeometry relative="1" as="geometry" />
        </mxCell>
        <mxCell id="E2RvpgHc29IkUyafWSKe-26" value="Note" style="shape=note;whiteSpace=wrap;html=1;rounded=0;shadow=0;comic=0;labelBackgroundColor=none;strokeWidth=1;fontFamily=Verdana;fontSize=12;align=center;size=20;" vertex="1" parent="E2RvpgHc29IkUyafWSKe-11">
          <mxGeometry x="40" y="648" width="105" height="55" as="geometry" />
        </mxCell>
        <mxCell id="E2RvpgHc29IkUyafWSKe-27" value="Lane 3" style="swimlane;html=1;startSize=20;" vertex="1" parent="E2RvpgHc29IkUyafWSKe-1">
          <mxGeometry x="500" y="20" width="250" height="970" as="geometry" />
        </mxCell>
        <mxCell id="E2RvpgHc29IkUyafWSKe-28" style="edgeStyle=orthogonalEdgeStyle;rounded=0;html=1;labelBackgroundColor=none;startArrow=none;startFill=0;startSize=5;endArrow=classicThin;endFill=1;endSize=5;jettySize=auto;orthogonalLoop=1;strokeWidth=1;fontFamily=Verdana;fontSize=12" edge="1" parent="E2RvpgHc29IkUyafWSKe-27" source="E2RvpgHc29IkUyafWSKe-29" target="E2RvpgHc29IkUyafWSKe-30">
          <mxGeometry relative="1" as="geometry" />
        </mxCell>
        <mxCell id="E2RvpgHc29IkUyafWSKe-29" value="" style="ellipse;whiteSpace=wrap;html=1;rounded=0;shadow=0;comic=0;labelBackgroundColor=none;strokeWidth=1;fillColor=#000000;fontFamily=Verdana;fontSize=12;align=center;" vertex="1" parent="E2RvpgHc29IkUyafWSKe-27">
          <mxGeometry x="80" y="40" width="40" height="40" as="geometry" />
        </mxCell>
        <mxCell id="E2RvpgHc29IkUyafWSKe-30" value="Action" style="rounded=1;whiteSpace=wrap;html=1;shadow=0;comic=0;labelBackgroundColor=none;strokeWidth=1;fontFamily=Verdana;fontSize=12;align=center;arcSize=50;" vertex="1" parent="E2RvpgHc29IkUyafWSKe-27">
          <mxGeometry x="50" y="110" width="100" height="30" as="geometry" />
        </mxCell>
        <mxCell id="E2RvpgHc29IkUyafWSKe-31" style="rounded=0;html=1;labelBackgroundColor=none;startArrow=none;startFill=0;startSize=5;endArrow=classicThin;endFill=1;endSize=5;jettySize=auto;orthogonalLoop=1;strokeWidth=1;fontFamily=Verdana;fontSize=12" edge="1" parent="E2RvpgHc29IkUyafWSKe-27" source="E2RvpgHc29IkUyafWSKe-32" target="E2RvpgHc29IkUyafWSKe-36">
          <mxGeometry relative="1" as="geometry" />
        </mxCell>
        <mxCell id="E2RvpgHc29IkUyafWSKe-32" value="Action" style="rounded=1;whiteSpace=wrap;html=1;shadow=0;comic=0;labelBackgroundColor=none;strokeWidth=1;fontFamily=Verdana;fontSize=12;align=center;arcSize=50;" vertex="1" parent="E2RvpgHc29IkUyafWSKe-27">
          <mxGeometry x="45" y="208" width="100" height="30" as="geometry" />
        </mxCell>
        <mxCell id="E2RvpgHc29IkUyafWSKe-33" style="edgeStyle=none;rounded=0;html=1;labelBackgroundColor=none;startArrow=none;startFill=0;startSize=5;endArrow=classicThin;endFill=1;endSize=5;jettySize=auto;orthogonalLoop=1;strokeWidth=1;fontFamily=Verdana;fontSize=12" edge="1" parent="E2RvpgHc29IkUyafWSKe-27" source="E2RvpgHc29IkUyafWSKe-34" target="E2RvpgHc29IkUyafWSKe-37">
          <mxGeometry relative="1" as="geometry" />
        </mxCell>
        <mxCell id="E2RvpgHc29IkUyafWSKe-34" value="Action" style="rounded=1;whiteSpace=wrap;html=1;shadow=0;comic=0;labelBackgroundColor=none;strokeWidth=1;fontFamily=Verdana;fontSize=12;align=center;arcSize=50;" vertex="1" parent="E2RvpgHc29IkUyafWSKe-27">
          <mxGeometry x="85" y="330" width="100" height="30" as="geometry" />
        </mxCell>
        <mxCell id="E2RvpgHc29IkUyafWSKe-35" style="edgeStyle=none;rounded=0;html=1;labelBackgroundColor=none;startArrow=none;startFill=0;startSize=5;endArrow=classicThin;endFill=1;endSize=5;jettySize=auto;orthogonalLoop=1;strokeWidth=1;fontFamily=Verdana;fontSize=12" edge="1" parent="E2RvpgHc29IkUyafWSKe-27" source="E2RvpgHc29IkUyafWSKe-36" target="E2RvpgHc29IkUyafWSKe-34">
          <mxGeometry relative="1" as="geometry" />
        </mxCell>
        <mxCell id="E2RvpgHc29IkUyafWSKe-36" value="Object" style="rounded=0;whiteSpace=wrap;html=1;shadow=0;comic=0;labelBackgroundColor=none;strokeWidth=1;fontFamily=Verdana;fontSize=12;align=center;arcSize=50;" vertex="1" parent="E2RvpgHc29IkUyafWSKe-27">
          <mxGeometry x="15" y="268" width="70" height="30" as="geometry" />
        </mxCell>
        <mxCell id="E2RvpgHc29IkUyafWSKe-37" value="Object" style="rounded=0;whiteSpace=wrap;html=1;shadow=0;comic=0;labelBackgroundColor=none;strokeWidth=1;fontFamily=Verdana;fontSize=12;align=center;arcSize=50;" vertex="1" parent="E2RvpgHc29IkUyafWSKe-27">
          <mxGeometry x="-35" y="360" width="70" height="30" as="geometry" />
        </mxCell>
        <mxCell id="E2RvpgHc29IkUyafWSKe-38" style="edgeStyle=none;rounded=0;html=1;labelBackgroundColor=none;startArrow=none;startFill=0;startSize=5;endArrow=classicThin;endFill=1;endSize=5;jettySize=auto;orthogonalLoop=1;strokeWidth=1;fontFamily=Verdana;fontSize=12" edge="1" parent="E2RvpgHc29IkUyafWSKe-27" source="E2RvpgHc29IkUyafWSKe-39" target="E2RvpgHc29IkUyafWSKe-41">
          <mxGeometry relative="1" as="geometry" />
        </mxCell>
        <mxCell id="E2RvpgHc29IkUyafWSKe-39" value="Object" style="rounded=0;whiteSpace=wrap;html=1;shadow=0;comic=0;labelBackgroundColor=none;strokeWidth=1;fontFamily=Verdana;fontSize=12;align=center;arcSize=50;" vertex="1" parent="E2RvpgHc29IkUyafWSKe-27">
          <mxGeometry x="-35" y="610" width="70" height="30" as="geometry" />
        </mxCell>
        <mxCell id="E2RvpgHc29IkUyafWSKe-40" style="edgeStyle=none;rounded=0;html=1;labelBackgroundColor=none;startArrow=none;startFill=0;startSize=5;endArrow=classicThin;endFill=1;endSize=5;jettySize=auto;orthogonalLoop=1;strokeWidth=1;fontFamily=Verdana;fontSize=12" edge="1" parent="E2RvpgHc29IkUyafWSKe-27" source="E2RvpgHc29IkUyafWSKe-41" target="E2RvpgHc29IkUyafWSKe-43">
          <mxGeometry relative="1" as="geometry" />
        </mxCell>
        <mxCell id="E2RvpgHc29IkUyafWSKe-41" value="Action" style="rounded=1;whiteSpace=wrap;html=1;shadow=0;comic=0;labelBackgroundColor=none;strokeWidth=1;fontFamily=Verdana;fontSize=12;align=center;arcSize=50;" vertex="1" parent="E2RvpgHc29IkUyafWSKe-27">
          <mxGeometry x="70" y="670" width="100" height="30" as="geometry" />
        </mxCell>
        <mxCell id="E2RvpgHc29IkUyafWSKe-42" style="edgeStyle=none;rounded=0;html=1;labelBackgroundColor=none;startArrow=none;startFill=0;startSize=5;endArrow=classicThin;endFill=1;endSize=5;jettySize=auto;orthogonalLoop=1;strokeWidth=1;fontFamily=Verdana;fontSize=12" edge="1" parent="E2RvpgHc29IkUyafWSKe-27" source="E2RvpgHc29IkUyafWSKe-43" target="E2RvpgHc29IkUyafWSKe-44">
          <mxGeometry relative="1" as="geometry" />
        </mxCell>
        <mxCell id="E2RvpgHc29IkUyafWSKe-43" value="Action" style="rounded=1;whiteSpace=wrap;html=1;shadow=0;comic=0;labelBackgroundColor=none;strokeWidth=1;fontFamily=Verdana;fontSize=12;align=center;arcSize=50;" vertex="1" parent="E2RvpgHc29IkUyafWSKe-27">
          <mxGeometry x="70" y="810" width="100" height="30" as="geometry" />
        </mxCell>
        <mxCell id="E2RvpgHc29IkUyafWSKe-44" value="" style="shape=mxgraph.bpmn.shape;html=1;verticalLabelPosition=bottom;labelBackgroundColor=#ffffff;verticalAlign=top;perimeter=ellipsePerimeter;outline=end;symbol=terminate;rounded=0;shadow=0;comic=0;strokeWidth=1;fontFamily=Verdana;fontSize=12;align=center;" vertex="1" parent="E2RvpgHc29IkUyafWSKe-27">
          <mxGeometry x="100" y="880" width="40" height="40" as="geometry" />
        </mxCell>
        <mxCell id="E2RvpgHc29IkUyafWSKe-45" style="edgeStyle=none;rounded=0;html=1;dashed=1;labelBackgroundColor=none;startArrow=none;startFill=0;startSize=5;endArrow=oval;endFill=0;endSize=5;jettySize=auto;orthogonalLoop=1;strokeWidth=1;fontFamily=Verdana;fontSize=12" edge="1" parent="E2RvpgHc29IkUyafWSKe-27" source="E2RvpgHc29IkUyafWSKe-47" target="E2RvpgHc29IkUyafWSKe-32">
          <mxGeometry relative="1" as="geometry" />
        </mxCell>
        <mxCell id="E2RvpgHc29IkUyafWSKe-46" style="edgeStyle=none;rounded=0;html=1;dashed=1;labelBackgroundColor=none;startArrow=none;startFill=0;startSize=5;endArrow=oval;endFill=0;endSize=5;jettySize=auto;orthogonalLoop=1;strokeWidth=1;fontFamily=Verdana;fontSize=12" edge="1" parent="E2RvpgHc29IkUyafWSKe-27" source="E2RvpgHc29IkUyafWSKe-47" target="E2RvpgHc29IkUyafWSKe-36">
          <mxGeometry relative="1" as="geometry" />
        </mxCell>
        <mxCell id="E2RvpgHc29IkUyafWSKe-47" value="Note" style="shape=note;whiteSpace=wrap;html=1;rounded=0;shadow=0;comic=0;labelBackgroundColor=none;strokeWidth=1;fontFamily=Verdana;fontSize=12;align=center;size=20;" vertex="1" parent="E2RvpgHc29IkUyafWSKe-27">
          <mxGeometry x="160" y="256" width="75" height="44" as="geometry" />
        </mxCell>
        <mxCell id="E2RvpgHc29IkUyafWSKe-48" style="edgeStyle=none;rounded=0;html=1;dashed=1;labelBackgroundColor=none;startArrow=none;startFill=0;startSize=5;endArrow=oval;endFill=0;endSize=5;jettySize=auto;orthogonalLoop=1;strokeWidth=1;fontFamily=Verdana;fontSize=12" edge="1" parent="E2RvpgHc29IkUyafWSKe-27" source="E2RvpgHc29IkUyafWSKe-50" target="E2RvpgHc29IkUyafWSKe-34">
          <mxGeometry relative="1" as="geometry" />
        </mxCell>
        <mxCell id="E2RvpgHc29IkUyafWSKe-49" style="edgeStyle=none;rounded=0;html=1;dashed=1;labelBackgroundColor=none;startArrow=none;startFill=0;startSize=5;endArrow=oval;endFill=0;endSize=5;jettySize=auto;orthogonalLoop=1;strokeWidth=1;fontFamily=Verdana;fontSize=12" edge="1" parent="E2RvpgHc29IkUyafWSKe-27" source="E2RvpgHc29IkUyafWSKe-50" target="E2RvpgHc29IkUyafWSKe-37">
          <mxGeometry relative="1" as="geometry" />
        </mxCell>
        <mxCell id="E2RvpgHc29IkUyafWSKe-50" value="Note" style="shape=note;whiteSpace=wrap;html=1;rounded=0;shadow=0;comic=0;labelBackgroundColor=none;strokeWidth=1;fontFamily=Verdana;fontSize=12;align=center;size=20;" vertex="1" parent="E2RvpgHc29IkUyafWSKe-27">
          <mxGeometry x="110" y="415" width="105" height="55" as="geometry" />
        </mxCell>
        <mxCell id="E2RvpgHc29IkUyafWSKe-51" style="edgeStyle=none;rounded=0;html=1;dashed=1;labelBackgroundColor=none;startArrow=none;startFill=0;startSize=5;endArrow=oval;endFill=0;endSize=5;jettySize=auto;orthogonalLoop=1;strokeWidth=1;fontFamily=Verdana;fontSize=12" edge="1" parent="E2RvpgHc29IkUyafWSKe-27" source="E2RvpgHc29IkUyafWSKe-53" target="E2RvpgHc29IkUyafWSKe-41">
          <mxGeometry relative="1" as="geometry" />
        </mxCell>
        <mxCell id="E2RvpgHc29IkUyafWSKe-52" style="edgeStyle=none;rounded=0;html=1;dashed=1;labelBackgroundColor=none;startArrow=none;startFill=0;startSize=5;endArrow=oval;endFill=0;endSize=5;jettySize=auto;orthogonalLoop=1;strokeWidth=1;fontFamily=Verdana;fontSize=12" edge="1" parent="E2RvpgHc29IkUyafWSKe-27" source="E2RvpgHc29IkUyafWSKe-53" target="E2RvpgHc29IkUyafWSKe-39">
          <mxGeometry relative="1" as="geometry" />
        </mxCell>
        <mxCell id="E2RvpgHc29IkUyafWSKe-53" value="Note" style="shape=note;whiteSpace=wrap;html=1;rounded=0;shadow=0;comic=0;labelBackgroundColor=none;strokeWidth=1;fontFamily=Verdana;fontSize=12;align=center;size=20;" vertex="1" parent="E2RvpgHc29IkUyafWSKe-27">
          <mxGeometry x="120" y="590" width="115" height="50" as="geometry" />
        </mxCell>
        <mxCell id="E2RvpgHc29IkUyafWSKe-54" style="edgeStyle=none;rounded=0;html=1;dashed=1;labelBackgroundColor=none;startArrow=none;startFill=0;startSize=5;endArrow=oval;endFill=0;endSize=5;jettySize=auto;orthogonalLoop=1;strokeWidth=1;fontFamily=Verdana;fontSize=12" edge="1" parent="E2RvpgHc29IkUyafWSKe-27" source="E2RvpgHc29IkUyafWSKe-55" target="E2RvpgHc29IkUyafWSKe-43">
          <mxGeometry relative="1" as="geometry" />
        </mxCell>
        <mxCell id="E2RvpgHc29IkUyafWSKe-55" value="Note" style="shape=note;whiteSpace=wrap;html=1;rounded=0;shadow=0;comic=0;labelBackgroundColor=none;strokeWidth=1;fontFamily=Verdana;fontSize=12;align=center;size=20;" vertex="1" parent="E2RvpgHc29IkUyafWSKe-27">
          <mxGeometry x="150" y="740" width="95" height="45" as="geometry" />
        </mxCell>
        <mxCell id="E2RvpgHc29IkUyafWSKe-56" style="edgeStyle=orthogonalEdgeStyle;rounded=0;html=1;entryX=0.5;entryY=0;labelBackgroundColor=none;startArrow=none;startFill=0;startSize=5;endArrow=classicThin;endFill=1;endSize=5;jettySize=auto;orthogonalLoop=1;strokeWidth=1;fontFamily=Verdana;fontSize=12" edge="1" parent="E2RvpgHc29IkUyafWSKe-1" source="E2RvpgHc29IkUyafWSKe-30" target="E2RvpgHc29IkUyafWSKe-12">
          <mxGeometry relative="1" as="geometry">
            <Array as="points">
              <mxPoint x="354" y="145" />
            </Array>
          </mxGeometry>
        </mxCell>
        <mxCell id="E2RvpgHc29IkUyafWSKe-57" style="edgeStyle=orthogonalEdgeStyle;rounded=0;html=1;exitX=0.75;exitY=1;labelBackgroundColor=none;startArrow=none;startFill=0;startSize=5;endArrow=classicThin;endFill=1;endSize=5;jettySize=auto;orthogonalLoop=1;strokeWidth=1;fontFamily=Verdana;fontSize=12" edge="1" parent="E2RvpgHc29IkUyafWSKe-1" source="E2RvpgHc29IkUyafWSKe-12" target="E2RvpgHc29IkUyafWSKe-32">
          <mxGeometry relative="1" as="geometry">
            <Array as="points">
              <mxPoint x="390" y="210" />
              <mxPoint x="595" y="210" />
            </Array>
          </mxGeometry>
        </mxCell>
        <mxCell id="E2RvpgHc29IkUyafWSKe-58" style="edgeStyle=orthogonalEdgeStyle;rounded=0;html=1;exitX=0.25;exitY=1;entryX=0.5;entryY=0;labelBackgroundColor=none;startArrow=none;startFill=0;startSize=5;endArrow=classicThin;endFill=1;endSize=5;jettySize=auto;orthogonalLoop=1;strokeWidth=1;fontFamily=Verdana;fontSize=12" edge="1" parent="E2RvpgHc29IkUyafWSKe-1" source="E2RvpgHc29IkUyafWSKe-12" target="E2RvpgHc29IkUyafWSKe-4">
          <mxGeometry relative="1" as="geometry">
            <Array as="points">
              <mxPoint x="317" y="210" />
              <mxPoint x="140" y="210" />
            </Array>
          </mxGeometry>
        </mxCell>
        <mxCell id="E2RvpgHc29IkUyafWSKe-59" style="edgeStyle=orthogonalEdgeStyle;rounded=0;html=1;entryX=0.75;entryY=0;labelBackgroundColor=none;startArrow=none;startFill=0;startSize=5;endArrow=classicThin;endFill=1;endSize=5;jettySize=auto;orthogonalLoop=1;strokeWidth=1;fontFamily=Verdana;fontSize=12" edge="1" parent="E2RvpgHc29IkUyafWSKe-1" source="E2RvpgHc29IkUyafWSKe-37" target="E2RvpgHc29IkUyafWSKe-16">
          <mxGeometry relative="1" as="geometry" />
        </mxCell>
        <mxCell id="E2RvpgHc29IkUyafWSKe-60" style="edgeStyle=none;rounded=0;html=1;labelBackgroundColor=none;startArrow=none;startFill=0;startSize=5;endArrow=classicThin;endFill=1;endSize=5;jettySize=auto;orthogonalLoop=1;strokeWidth=1;fontFamily=Verdana;fontSize=12" edge="1" parent="E2RvpgHc29IkUyafWSKe-1" source="E2RvpgHc29IkUyafWSKe-5" target="E2RvpgHc29IkUyafWSKe-18">
          <mxGeometry relative="1" as="geometry" />
        </mxCell>
        <mxCell id="E2RvpgHc29IkUyafWSKe-61" style="edgeStyle=none;rounded=0;html=1;labelBackgroundColor=none;startArrow=none;startFill=0;startSize=5;endArrow=classicThin;endFill=1;endSize=5;jettySize=auto;orthogonalLoop=1;strokeWidth=1;fontFamily=Verdana;fontSize=12" edge="1" parent="E2RvpgHc29IkUyafWSKe-1" source="E2RvpgHc29IkUyafWSKe-21" target="E2RvpgHc29IkUyafWSKe-39">
          <mxGeometry relative="1" as="geometry" />
        </mxCell>
        <mxCell id="E2RvpgHc29IkUyafWSKe-62" style="edgeStyle=none;rounded=0;html=1;dashed=1;labelBackgroundColor=none;startArrow=none;startFill=0;startSize=5;endArrow=oval;endFill=0;endSize=5;jettySize=auto;orthogonalLoop=1;strokeWidth=1;fontFamily=Verdana;fontSize=12" edge="1" parent="E2RvpgHc29IkUyafWSKe-1" source="E2RvpgHc29IkUyafWSKe-26" target="E2RvpgHc29IkUyafWSKe-39">
          <mxGeometry relative="1" as="geometry" />
        </mxCell>
      </root>
    </mxGraphModel>
  </diagram>
</mxfile>
